<svg width="28" height="28" viewBox="0 0 28 28" fill="none" xmlns="http://www.w3.org/2000/svg">
<path d="M22.7507 4.66732H19.2507V2.91732C19.2507 2.76261 19.1892 2.61424 19.0798 2.50484C18.9704 2.39544 18.822 2.33398 18.6673 2.33398C18.5126 2.33398 18.3642 2.39544 18.2548 2.50484C18.1454 2.61424 18.084 2.76261 18.084 2.91732V4.66732H9.91732V2.91732C9.91732 2.76261 9.85586 2.61424 9.74646 2.50484C9.63707 2.39544 9.48869 2.33398 9.33398 2.33398C9.17928 2.33398 9.0309 2.39544 8.92151 2.50484C8.81211 2.61424 8.75065 2.76261 8.75065 2.91732V4.66732H5.25065C4.47739 4.66824 3.73606 4.97583 3.18928 5.52261C2.6425 6.06939 2.33491 6.81072 2.33398 7.58398V22.7507C2.33491 23.5239 2.6425 24.2652 3.18928 24.812C3.73606 25.3588 4.47739 25.6664 5.25065 25.6673H22.7507C23.5242 25.6673 24.2661 25.36 24.813 24.813C25.36 24.2661 25.6673 23.5242 25.6673 22.7507V7.58398C25.6673 6.81044 25.36 6.06857 24.813 5.52159C24.2661 4.97461 23.5242 4.66732 22.7507 4.66732ZM24.5007 22.7507C24.5007 23.2148 24.3163 23.6599 23.9881 23.9881C23.6599 24.3163 23.2148 24.5007 22.7507 24.5007H5.25065C4.78652 24.5007 4.3414 24.3163 4.01321 23.9881C3.68503 23.6599 3.50065 23.2148 3.50065 22.7507V12.834H24.5007V22.7507ZM24.5007 11.6673H3.50065V7.58398C3.50065 6.61798 4.28232 5.83398 5.25065 5.83398H8.75065V7.58398C8.75065 7.73869 8.81211 7.88707 8.92151 7.99646C9.0309 8.10586 9.17928 8.16732 9.33398 8.16732C9.48869 8.16732 9.63707 8.10586 9.74646 7.99646C9.85586 7.88707 9.91732 7.73869 9.91732 7.58398V5.83398H18.084V7.58398C18.084 7.73869 18.1454 7.88707 18.2548 7.99646C18.3642 8.10586 18.5126 8.16732 18.6673 8.16732C18.822 8.16732 18.9704 8.10586 19.0798 7.99646C19.1892 7.88707 19.2507 7.73869 19.2507 7.58398V5.83398H22.7507C23.2148 5.83398 23.6599 6.01836 23.9881 6.34655C24.3163 6.67474 24.5007 7.11986 24.5007 7.58398V11.6673Z" fill="#6B7280"/>
</svg>
