<svg width="28" height="28" viewBox="0 0 28 28" fill="none" xmlns="http://www.w3.org/2000/svg">
<path d="M13.7074 2.33009C12.6209 2.32761 11.5722 2.72933 10.7654 3.45711C9.95864 4.1849 9.45135 5.18673 9.34223 6.26779C9.23311 7.34884 9.52994 8.43185 10.175 9.30619C10.8201 10.1805 11.7673 10.7837 12.8324 10.9984V13.4158H9.04074C8.34455 13.4158 7.67687 13.6923 7.18458 14.1846C6.6923 14.6769 6.41574 15.3446 6.41574 16.0408V17.0044C5.35612 17.2253 4.41582 17.8307 3.7762 18.7039C3.13658 19.577 2.84296 20.6561 2.95196 21.733C3.06097 22.8099 3.56489 23.8083 4.36652 24.5356C5.16814 25.2629 6.21069 25.6676 7.29307 25.6716C8.37942 25.6735 9.42765 25.2714 10.234 24.5434C11.0403 23.8154 11.5472 22.8136 11.656 21.7327C11.7648 20.6518 11.4678 19.5691 10.8228 18.695C10.1777 17.8209 9.23066 17.2179 8.16574 17.0033V16.0408C8.16574 15.8087 8.25793 15.5861 8.42202 15.422C8.58612 15.2579 8.80868 15.1658 9.04074 15.1658H18.3741C18.6061 15.1658 18.8287 15.2579 18.9928 15.422C19.1569 15.5861 19.2491 15.8087 19.2491 16.0408V17.0044C18.1895 17.2253 17.2492 17.8307 16.6095 18.7039C15.9699 19.577 15.6763 20.6561 15.7853 21.733C15.8943 22.8099 16.3982 23.8083 17.1998 24.5356C18.0015 25.2629 19.044 25.6676 20.1264 25.6716C21.2127 25.6735 22.261 25.2714 23.0673 24.5434C23.8737 23.8154 24.3805 22.8136 24.4893 21.7327C24.5982 20.6518 24.3012 19.5691 23.6561 18.695C23.011 17.8209 22.064 17.2179 20.9991 17.0033V16.0408C20.9991 15.3446 20.7225 14.6769 20.2302 14.1846C19.7379 13.6923 19.0703 13.4158 18.3741 13.4158H14.5824V10.9984C15.6431 10.7788 16.5847 10.1739 17.2255 9.30062C17.8662 8.42732 18.1607 7.34756 18.0519 6.26988C17.9431 5.1922 17.4388 4.19306 16.6365 3.46543C15.8341 2.73781 14.7906 2.33332 13.7074 2.33009ZM11.0801 6.70742C11.0801 6.01061 11.3569 5.34234 11.8496 4.84962C12.3423 4.3569 13.0106 4.08009 13.7074 4.08009C14.4042 4.08009 15.0725 4.3569 15.5652 4.84962C16.0579 5.34234 16.3347 6.01061 16.3347 6.70742C16.3347 7.40424 16.0579 8.07251 15.5652 8.56523C15.0725 9.05795 14.4042 9.33476 13.7074 9.33476C13.0106 9.33476 12.3423 9.05795 11.8496 8.56523C11.3569 8.07251 11.0801 7.40424 11.0801 6.70742ZM4.66574 21.2943C4.66574 20.9492 4.73371 20.6074 4.86578 20.2886C4.99784 19.9698 5.19141 19.6801 5.43544 19.436C5.67946 19.192 5.96916 18.9984 6.288 18.8664C6.60683 18.7343 6.94855 18.6663 7.29366 18.6663C7.63876 18.6663 7.98048 18.7343 8.29932 18.8664C8.61815 18.9984 8.90785 19.192 9.15187 19.436C9.3959 19.6801 9.58947 19.9698 9.72154 20.2886C9.8536 20.6074 9.92157 20.9492 9.92157 21.2943C9.92157 21.9912 9.6447 22.6596 9.15187 23.1525C8.65904 23.6453 7.99062 23.9222 7.29366 23.9222C6.59669 23.9222 5.92827 23.6453 5.43544 23.1525C4.94261 22.6596 4.66574 21.9912 4.66574 21.2943ZM20.1264 18.6658C20.4715 18.6658 20.8132 18.7337 21.1321 18.8658C21.4509 18.9979 21.7406 19.1914 21.9846 19.4355C22.2286 19.6795 22.4222 19.9692 22.5543 20.288C22.6863 20.6068 22.7543 20.9486 22.7543 21.2937C22.7543 21.6388 22.6863 21.9805 22.5543 22.2993C22.4222 22.6182 22.2286 22.9079 21.9846 23.1519C21.7406 23.3959 21.4509 23.5895 21.1321 23.7216C20.8132 23.8536 20.4715 23.9216 20.1264 23.9216C19.4294 23.9216 18.761 23.6447 18.2682 23.1519C17.7754 22.6591 17.4985 21.9906 17.4985 21.2937C17.4985 20.5967 17.7754 19.9283 18.2682 19.4355C18.761 18.9426 19.4294 18.6658 20.1264 18.6658Z" fill="#6B7280"/>
</svg>
