<svg width="382" height="242" viewBox="0 0 382 242" fill="none" xmlns="http://www.w3.org/2000/svg">
<rect width="382" height="215" rx="12" fill="#1F74EC"/>
<mask id="mask0_178_3349" style="mask-type:alpha" maskUnits="userSpaceOnUse" x="0" y="0" width="382" height="215">
<rect width="382" height="215" rx="12" fill="#396B5F"/>
</mask>
<g mask="url(#mask0_178_3349)">
<g filter="url(#filter0_f_178_3349)">
<ellipse cx="295.5" cy="32.5" rx="264.5" ry="228.5" fill="#E5F33C" fill-opacity="0.1"/>
</g>
<path d="M28.592 48.416C28.592 47.328 28.8427 46.352 29.344 45.488C29.856 44.624 30.544 43.952 31.408 43.472C32.2827 42.9813 33.2373 42.736 34.272 42.736C35.456 42.736 36.5067 43.0293 37.424 43.616C38.352 44.192 39.024 45.0133 39.44 46.08H37.248C36.96 45.4933 36.56 45.056 36.048 44.768C35.536 44.48 34.944 44.336 34.272 44.336C33.536 44.336 32.88 44.5013 32.304 44.832C31.728 45.1627 31.2747 45.6373 30.944 46.256C30.624 46.8747 30.464 47.5947 30.464 48.416C30.464 49.2373 30.624 49.9573 30.944 50.576C31.2747 51.1947 31.728 51.6747 32.304 52.016C32.88 52.3467 33.536 52.512 34.272 52.512C34.944 52.512 35.536 52.368 36.048 52.08C36.56 51.792 36.96 51.3547 37.248 50.768H39.44C39.024 51.8347 38.352 52.656 37.424 53.232C36.5067 53.808 35.456 54.096 34.272 54.096C33.2267 54.096 32.272 53.856 31.408 53.376C30.544 52.8853 29.856 52.208 29.344 51.344C28.8427 50.48 28.592 49.504 28.592 48.416ZM43.399 46.464C43.6657 46.016 44.0177 45.6693 44.455 45.424C44.903 45.168 45.431 45.04 46.039 45.04V46.928H45.575C44.8603 46.928 44.3163 47.1093 43.943 47.472C43.5803 47.8347 43.399 48.464 43.399 49.36V54H41.575V45.184H43.399V46.464ZM55.7956 49.376C55.7956 49.7067 55.7743 50.0053 55.7316 50.272H48.9956C49.049 50.976 49.3103 51.5413 49.7796 51.968C50.249 52.3947 50.825 52.608 51.5076 52.608C52.489 52.608 53.1823 52.1973 53.5876 51.376H55.5556C55.289 52.1867 54.8036 52.8533 54.0996 53.376C53.4063 53.888 52.5423 54.144 51.5076 54.144C50.665 54.144 49.9076 53.9573 49.2356 53.584C48.5743 53.2 48.0516 52.6667 47.6676 51.984C47.2943 51.2907 47.1076 50.4907 47.1076 49.584C47.1076 48.6773 47.289 47.8827 47.6516 47.2C48.025 46.5067 48.5423 45.9733 49.2036 45.6C49.8756 45.2267 50.6436 45.04 51.5076 45.04C52.3396 45.04 53.081 45.2213 53.7316 45.584C54.3823 45.9467 54.889 46.4587 55.2516 47.12C55.6143 47.7707 55.7956 48.5227 55.7956 49.376ZM53.8916 48.8C53.881 48.128 53.641 47.5893 53.1716 47.184C52.7023 46.7787 52.121 46.576 51.4276 46.576C50.7983 46.576 50.2596 46.7787 49.8116 47.184C49.3636 47.5787 49.097 48.1173 49.0116 48.8H53.8916ZM56.9826 49.552C56.9826 48.6667 57.164 47.8827 57.5266 47.2C57.9 46.5173 58.4013 45.9893 59.0306 45.616C59.6706 45.232 60.38 45.04 61.1586 45.04C61.7346 45.04 62.3 45.168 62.8546 45.424C63.42 45.6693 63.868 46 64.1986 46.416V42.16H66.0386V54H64.1986V52.672C63.9 53.0987 63.484 53.4507 62.9506 53.728C62.428 54.0053 61.8253 54.144 61.1426 54.144C60.3746 54.144 59.6706 53.952 59.0306 53.568C58.4013 53.1733 57.9 52.6293 57.5266 51.936C57.164 51.232 56.9826 50.4373 56.9826 49.552ZM64.1986 49.584C64.1986 48.976 64.0706 48.448 63.8146 48C63.5693 47.552 63.244 47.2107 62.8386 46.976C62.4333 46.7413 61.996 46.624 61.5266 46.624C61.0573 46.624 60.62 46.7413 60.2146 46.976C59.8093 47.2 59.4786 47.536 59.2226 47.984C58.9773 48.4213 58.8546 48.944 58.8546 49.552C58.8546 50.16 58.9773 50.6933 59.2226 51.152C59.4786 51.6107 59.8093 51.9627 60.2146 52.208C60.6306 52.4427 61.068 52.56 61.5266 52.56C61.996 52.56 62.4333 52.4427 62.8386 52.208C63.244 51.9733 63.5693 51.632 63.8146 51.184C64.0706 50.7253 64.1986 50.192 64.1986 49.584ZM69.3624 44.016C69.0317 44.016 68.7544 43.904 68.5304 43.68C68.3064 43.456 68.1944 43.1787 68.1944 42.848C68.1944 42.5173 68.3064 42.24 68.5304 42.016C68.7544 41.792 69.0317 41.68 69.3624 41.68C69.6824 41.68 69.9544 41.792 70.1784 42.016C70.4024 42.24 70.5144 42.5173 70.5144 42.848C70.5144 43.1787 70.4024 43.456 70.1784 43.68C69.9544 43.904 69.6824 44.016 69.3624 44.016ZM70.2584 45.184V54H68.4344V45.184H70.2584ZM74.7811 46.672V51.552C74.7811 51.8827 74.8558 52.1227 75.0051 52.272C75.1651 52.4107 75.4318 52.48 75.8051 52.48H76.9251V54H75.4851C74.6638 54 74.0345 53.808 73.5971 53.424C73.1598 53.04 72.9411 52.416 72.9411 51.552V46.672H71.9011V45.184H72.9411V42.992H74.7811V45.184H76.9251V46.672H74.7811ZM28.592 72.416C28.592 71.328 28.8427 70.352 29.344 69.488C29.856 68.624 30.544 67.952 31.408 67.472C32.2827 66.9813 33.2373 66.736 34.272 66.736C35.456 66.736 36.5067 67.0293 37.424 67.616C38.352 68.192 39.024 69.0133 39.44 70.08H37.248C36.96 69.4933 36.56 69.056 36.048 68.768C35.536 68.48 34.944 68.336 34.272 68.336C33.536 68.336 32.88 68.5013 32.304 68.832C31.728 69.1627 31.2747 69.6373 30.944 70.256C30.624 70.8747 30.464 71.5947 30.464 72.416C30.464 73.2373 30.624 73.9573 30.944 74.576C31.2747 75.1947 31.728 75.6747 32.304 76.016C32.88 76.3467 33.536 76.512 34.272 76.512C34.944 76.512 35.536 76.368 36.048 76.08C36.56 75.792 36.96 75.3547 37.248 74.768H39.44C39.024 75.8347 38.352 76.656 37.424 77.232C36.5067 77.808 35.456 78.096 34.272 78.096C33.2267 78.096 32.272 77.856 31.408 77.376C30.544 76.8853 29.856 76.208 29.344 75.344C28.8427 74.48 28.592 73.504 28.592 72.416ZM40.967 73.552C40.967 72.6667 41.1483 71.8827 41.511 71.2C41.8843 70.5173 42.3857 69.9893 43.015 69.616C43.655 69.232 44.359 69.04 45.127 69.04C45.8203 69.04 46.423 69.1787 46.935 69.456C47.4577 69.7227 47.8737 70.0587 48.183 70.464V69.184H50.023V78H48.183V76.688C47.8737 77.104 47.4523 77.4507 46.919 77.728C46.3857 78.0053 45.7777 78.144 45.095 78.144C44.3377 78.144 43.6443 77.952 43.015 77.568C42.3857 77.1733 41.8843 76.6293 41.511 75.936C41.1483 75.232 40.967 74.4373 40.967 73.552ZM48.183 73.584C48.183 72.976 48.055 72.448 47.799 72C47.5537 71.552 47.2283 71.2107 46.823 70.976C46.4177 70.7413 45.9803 70.624 45.511 70.624C45.0417 70.624 44.6043 70.7413 44.199 70.976C43.7937 71.2 43.463 71.536 43.207 71.984C42.9617 72.4213 42.839 72.944 42.839 73.552C42.839 74.16 42.9617 74.6933 43.207 75.152C43.463 75.6107 43.7937 75.9627 44.199 76.208C44.615 76.4427 45.0523 76.56 45.511 76.56C45.9803 76.56 46.4177 76.4427 46.823 76.208C47.2283 75.9733 47.5537 75.632 47.799 75.184C48.055 74.7253 48.183 74.192 48.183 73.584ZM54.2428 70.464C54.5094 70.016 54.8614 69.6693 55.2988 69.424C55.7468 69.168 56.2748 69.04 56.8828 69.04V70.928H56.4188C55.7041 70.928 55.1601 71.1093 54.7868 71.472C54.4241 71.8347 54.2428 72.464 54.2428 73.36V78H52.4188V69.184H54.2428V70.464ZM57.9514 73.552C57.9514 72.6667 58.1327 71.8827 58.4954 71.2C58.8687 70.5173 59.37 69.9893 59.9994 69.616C60.6394 69.232 61.3487 69.04 62.1274 69.04C62.7034 69.04 63.2687 69.168 63.8234 69.424C64.3887 69.6693 64.8367 70 65.1674 70.416V66.16H67.0074V78H65.1674V76.672C64.8687 77.0987 64.4527 77.4507 63.9194 77.728C63.3967 78.0053 62.794 78.144 62.1114 78.144C61.3434 78.144 60.6394 77.952 59.9994 77.568C59.37 77.1733 58.8687 76.6293 58.4954 75.936C58.1327 75.232 57.9514 74.4373 57.9514 73.552ZM65.1674 73.584C65.1674 72.976 65.0394 72.448 64.7834 72C64.538 71.552 64.2127 71.2107 63.8074 70.976C63.402 70.7413 62.9647 70.624 62.4954 70.624C62.026 70.624 61.5887 70.7413 61.1834 70.976C60.778 71.2 60.4474 71.536 60.1914 71.984C59.946 72.4213 59.8234 72.944 59.8234 73.552C59.8234 74.16 59.946 74.6933 60.1914 75.152C60.4474 75.6107 60.778 75.9627 61.1834 76.208C61.5994 76.4427 62.0367 76.56 62.4954 76.56C62.9647 76.56 63.402 76.4427 63.8074 76.208C64.2127 75.9733 64.538 75.632 64.7834 75.184C65.0394 74.7253 65.1674 74.192 65.1674 73.584Z" fill="white"/>
<path d="M575.573 7.22339C473.849 20.4929 314.364 47.3471 395.5 132.119C498.751 239.997 751.065 211.736 639.004 295" stroke="white" stroke-opacity="0.07"/>
<path d="M539.206 5.96655C437.482 19.2361 277.997 46.0903 359.133 130.862C462.384 238.741 714.698 210.479 602.637 293.743" stroke="white" stroke-opacity="0.07"/>
<path d="M502.839 2.19678C401.115 15.4663 241.63 42.3205 322.766 127.092C426.017 234.971 678.331 206.71 566.27 289.973" stroke="white" stroke-opacity="0.07"/>
<path d="M466.925 -2.83008C365.704 10.4395 207.009 37.2937 287.743 122.066C390.483 229.944 641.548 201.683 530.042 284.947" stroke="white" stroke-opacity="0.07"/>
<path d="M431.559 -7.85669C329.835 5.41284 170.35 32.2671 251.486 117.039C354.737 224.917 607.051 196.656 494.99 279.92" stroke="white" stroke-opacity="0.07"/>
<path d="M395.645 -12.8833C294.425 0.386233 135.729 27.2405 216.464 112.012C319.204 219.891 570.268 191.63 458.762 274.893" stroke="white" stroke-opacity="0.07"/>
<path d="M359.278 -17.9102C258.057 -4.64062 99.3621 22.2136 180.096 106.986C282.837 214.864 533.901 186.603 422.395 269.867" stroke="white" stroke-opacity="0.07"/>
<path d="M323.912 -22.9365C222.188 -9.66699 62.7033 17.1872 143.839 101.959C247.091 209.837 499.404 181.576 387.343 264.84" stroke="white" stroke-opacity="0.07"/>
<path d="M287.545 -26.7065C185.821 -13.437 26.3357 13.4172 107.472 98.1891C210.723 206.067 463.037 177.806 350.976 261.07" stroke="white" stroke-opacity="0.07"/>
<path d="M251.631 -29.22C150.411 -15.9504 -8.28466 10.9038 72.4497 95.6757C175.19 203.554 426.255 175.293 314.748 258.557" stroke="white" stroke-opacity="0.07"/>
<path d="M215.264 -31.7334C114.043 -18.4639 -44.6521 8.39035 36.0823 93.1623C138.822 201.041 389.887 172.779 278.381 256.043" stroke="white" stroke-opacity="0.07"/>
<path d="M178.897 -34.2466C77.6762 -20.977 -81.0192 5.87717 -0.284807 90.6491C102.455 198.527 353.52 170.266 242.014 253.53" stroke="white" stroke-opacity="0.07"/>
<path d="M142.53 -35.5034C41.3089 -22.2339 -117.386 4.62033 -36.6521 89.3923C66.088 197.271 317.153 169.009 205.646 252.273" stroke="white" stroke-opacity="0.07"/>
<path d="M106.162 -35.5034C4.94169 -22.2339 -153.754 4.62033 -73.0193 89.3923C29.7208 197.271 280.786 169.009 169.279 252.273" stroke="white" stroke-opacity="0.07"/>
<path d="M70.7971 -36.76C-30.9272 -23.4905 -190.412 3.36374 -109.276 88.1357C-6.02476 196.014 246.289 167.753 134.228 251.017" stroke="white" stroke-opacity="0.07"/>
<path d="M34.4295 -35.5034C-67.2947 -22.2339 -226.78 4.62033 -145.644 89.3923C-42.3923 197.271 209.921 169.009 97.8603 252.273" stroke="white" stroke-opacity="0.07"/>
<path d="M-1.93769 -34.2466C-103.662 -20.977 -263.147 5.87717 -182.011 90.6491C-78.7595 198.527 173.554 170.266 61.4931 253.53" stroke="white" stroke-opacity="0.07"/>
<path d="M-38.3045 -31.7334C-140.029 -18.4639 -299.514 8.39035 -218.378 93.1623C-115.126 201.041 137.187 172.779 25.1263 256.043" stroke="white" stroke-opacity="0.07"/>
<path d="M-74.6718 -29.22C-176.396 -15.9504 -335.881 10.9038 -254.745 95.6757C-151.494 203.554 100.82 175.293 -11.241 258.557" stroke="white" stroke-opacity="0.07"/>
</g>
<path d="M108.44 134.024C108.44 131.256 108.904 129.096 109.832 127.544C110.776 125.976 112.392 125.192 114.68 125.192C116.968 125.192 118.576 125.976 119.504 127.544C120.448 129.096 120.92 131.256 120.92 134.024C120.92 136.824 120.448 139.016 119.504 140.6C118.576 142.168 116.968 142.952 114.68 142.952C112.392 142.952 110.776 142.168 109.832 140.6C108.904 139.016 108.44 136.824 108.44 134.024ZM118.232 134.024C118.232 132.728 118.144 131.632 117.968 130.736C117.808 129.84 117.472 129.112 116.96 128.552C116.448 127.976 115.688 127.688 114.68 127.688C113.672 127.688 112.912 127.976 112.4 128.552C111.888 129.112 111.544 129.84 111.368 130.736C111.208 131.632 111.128 132.728 111.128 134.024C111.128 135.368 111.208 136.496 111.368 137.408C111.528 138.32 111.864 139.056 112.376 139.616C112.904 140.176 113.672 140.456 114.68 140.456C115.688 140.456 116.448 140.176 116.96 139.616C117.488 139.056 117.832 138.32 117.992 137.408C118.152 136.496 118.232 135.368 118.232 134.024ZM127.223 138.248C127.383 139.048 127.727 139.656 128.255 140.072C128.783 140.488 129.495 140.696 130.391 140.696C131.527 140.696 132.359 140.248 132.887 139.352C133.415 138.456 133.679 136.928 133.679 134.768C133.295 135.312 132.751 135.736 132.047 136.04C131.359 136.328 130.607 136.472 129.791 136.472C128.751 136.472 127.807 136.264 126.959 135.848C126.111 135.416 125.439 134.784 124.943 133.952C124.463 133.104 124.223 132.08 124.223 130.88C124.223 129.12 124.735 127.72 125.759 126.68C126.799 125.624 128.223 125.096 130.031 125.096C132.207 125.096 133.751 125.824 134.663 127.28C135.591 128.72 136.055 130.936 136.055 133.928C136.055 135.992 135.879 137.68 135.527 138.992C135.191 140.304 134.599 141.296 133.751 141.968C132.903 142.64 131.727 142.976 130.223 142.976C128.511 142.976 127.191 142.528 126.263 141.632C125.335 140.736 124.815 139.608 124.703 138.248H127.223ZM130.271 134.168C131.231 134.168 131.983 133.872 132.527 133.28C133.087 132.672 133.367 131.872 133.367 130.88C133.367 129.776 133.071 128.92 132.479 128.312C131.903 127.688 131.111 127.376 130.103 127.376C129.095 127.376 128.295 127.696 127.703 128.336C127.127 128.96 126.839 129.784 126.839 130.808C126.839 131.784 127.119 132.592 127.679 133.232C128.255 133.856 129.119 134.168 130.271 134.168ZM138.689 128V125.504H143.681V143H140.921V128H138.689ZM150.392 133.856C148.728 133.024 147.896 131.712 147.896 129.92C147.896 129.056 148.112 128.264 148.544 127.544C148.976 126.824 149.624 126.256 150.488 125.84C151.352 125.408 152.408 125.192 153.656 125.192C154.888 125.192 155.936 125.408 156.8 125.84C157.68 126.256 158.336 126.824 158.768 127.544C159.2 128.264 159.416 129.056 159.416 129.92C159.416 130.816 159.184 131.608 158.72 132.296C158.272 132.968 157.672 133.488 156.92 133.856C157.832 134.192 158.552 134.744 159.08 135.512C159.608 136.264 159.872 137.152 159.872 138.176C159.872 139.216 159.608 140.136 159.08 140.936C158.552 141.736 157.816 142.352 156.872 142.784C155.928 143.216 154.856 143.432 153.656 143.432C152.456 143.432 151.384 143.216 150.44 142.784C149.512 142.352 148.784 141.736 148.256 140.936C147.728 140.136 147.464 139.216 147.464 138.176C147.464 137.136 147.728 136.24 148.256 135.488C148.784 134.736 149.496 134.192 150.392 133.856ZM156.8 130.256C156.8 129.36 156.52 128.672 155.96 128.192C155.4 127.712 154.632 127.472 153.656 127.472C152.696 127.472 151.936 127.712 151.376 128.192C150.816 128.672 150.536 129.368 150.536 130.28C150.536 131.08 150.824 131.736 151.4 132.248C151.992 132.744 152.744 132.992 153.656 132.992C154.568 132.992 155.32 132.736 155.912 132.224C156.504 131.712 156.8 131.056 156.8 130.256ZM153.656 135.056C152.6 135.056 151.736 135.32 151.064 135.848C150.408 136.36 150.08 137.104 150.08 138.08C150.08 138.992 150.4 139.736 151.04 140.312C151.68 140.872 152.552 141.152 153.656 141.152C154.744 141.152 155.6 140.864 156.224 140.288C156.864 139.712 157.184 138.976 157.184 138.08C157.184 137.12 156.856 136.376 156.2 135.848C155.56 135.32 154.712 135.056 153.656 135.056ZM171.931 133.856C170.267 133.024 169.435 131.712 169.435 129.92C169.435 129.056 169.651 128.264 170.083 127.544C170.515 126.824 171.163 126.256 172.027 125.84C172.891 125.408 173.947 125.192 175.195 125.192C176.427 125.192 177.475 125.408 178.339 125.84C179.219 126.256 179.875 126.824 180.307 127.544C180.739 128.264 180.955 129.056 180.955 129.92C180.955 130.816 180.723 131.608 180.259 132.296C179.811 132.968 179.211 133.488 178.459 133.856C179.371 134.192 180.091 134.744 180.619 135.512C181.147 136.264 181.411 137.152 181.411 138.176C181.411 139.216 181.147 140.136 180.619 140.936C180.091 141.736 179.355 142.352 178.411 142.784C177.467 143.216 176.395 143.432 175.195 143.432C173.995 143.432 172.923 143.216 171.979 142.784C171.051 142.352 170.323 141.736 169.795 140.936C169.267 140.136 169.003 139.216 169.003 138.176C169.003 137.136 169.267 136.24 169.795 135.488C170.323 134.736 171.035 134.192 171.931 133.856ZM178.339 130.256C178.339 129.36 178.059 128.672 177.499 128.192C176.939 127.712 176.171 127.472 175.195 127.472C174.235 127.472 173.475 127.712 172.915 128.192C172.355 128.672 172.075 129.368 172.075 130.28C172.075 131.08 172.363 131.736 172.939 132.248C173.531 132.744 174.283 132.992 175.195 132.992C176.107 132.992 176.859 132.736 177.451 132.224C178.043 131.712 178.339 131.056 178.339 130.256ZM175.195 135.056C174.139 135.056 173.275 135.32 172.603 135.848C171.947 136.36 171.619 137.104 171.619 138.08C171.619 138.992 171.939 139.736 172.579 140.312C173.219 140.872 174.091 141.152 175.195 141.152C176.283 141.152 177.139 140.864 177.763 140.288C178.403 139.712 178.723 138.976 178.723 138.08C178.723 137.12 178.395 136.376 177.739 135.848C177.099 135.32 176.251 135.056 175.195 135.056ZM183.924 128V125.504H188.916V143H186.156V128H183.924ZM194.186 139.28C195.722 137.952 196.93 136.864 197.81 136.016C198.706 135.152 199.45 134.256 200.042 133.328C200.634 132.4 200.93 131.472 200.93 130.544C200.93 129.584 200.698 128.832 200.234 128.288C199.786 127.744 199.074 127.472 198.098 127.472C197.154 127.472 196.418 127.776 195.89 128.384C195.378 128.976 195.106 129.776 195.074 130.784H192.434C192.482 128.96 193.026 127.568 194.066 126.608C195.122 125.632 196.458 125.144 198.074 125.144C199.818 125.144 201.178 125.624 202.154 126.584C203.146 127.544 203.642 128.824 203.642 130.424C203.642 131.576 203.346 132.688 202.754 133.76C202.178 134.816 201.482 135.768 200.666 136.616C199.866 137.448 198.842 138.416 197.594 139.52L196.514 140.48H204.122V142.76H192.458V140.768L194.186 139.28ZM206.19 139.352V137.288L214.254 125.72H217.566V136.976H219.798V139.352H217.566V143H214.878V139.352H206.19ZM214.998 128.504L209.334 136.976H214.998V128.504ZM228.299 134.024C228.299 131.256 228.763 129.096 229.691 127.544C230.635 125.976 232.251 125.192 234.539 125.192C236.827 125.192 238.435 125.976 239.363 127.544C240.307 129.096 240.779 131.256 240.779 134.024C240.779 136.824 240.307 139.016 239.363 140.6C238.435 142.168 236.827 142.952 234.539 142.952C232.251 142.952 230.635 142.168 229.691 140.6C228.763 139.016 228.299 136.824 228.299 134.024ZM238.091 134.024C238.091 132.728 238.003 131.632 237.827 130.736C237.667 129.84 237.331 129.112 236.819 128.552C236.307 127.976 235.547 127.688 234.539 127.688C233.531 127.688 232.771 127.976 232.259 128.552C231.747 129.112 231.403 129.84 231.227 130.736C231.067 131.632 230.987 132.728 230.987 134.024C230.987 135.368 231.067 136.496 231.227 137.408C231.387 138.32 231.723 139.056 232.235 139.616C232.763 140.176 233.531 140.456 234.539 140.456C235.547 140.456 236.307 140.176 236.819 139.616C237.347 139.056 237.691 138.32 237.851 137.408C238.011 136.496 238.091 135.368 238.091 134.024ZM243.674 134.024C243.674 131.256 244.138 129.096 245.066 127.544C246.01 125.976 247.626 125.192 249.914 125.192C252.202 125.192 253.81 125.976 254.738 127.544C255.682 129.096 256.154 131.256 256.154 134.024C256.154 136.824 255.682 139.016 254.738 140.6C253.81 142.168 252.202 142.952 249.914 142.952C247.626 142.952 246.01 142.168 245.066 140.6C244.138 139.016 243.674 136.824 243.674 134.024ZM253.466 134.024C253.466 132.728 253.378 131.632 253.202 130.736C253.042 129.84 252.706 129.112 252.194 128.552C251.682 127.976 250.922 127.688 249.914 127.688C248.906 127.688 248.146 127.976 247.634 128.552C247.122 129.112 246.778 129.84 246.602 130.736C246.442 131.632 246.362 132.728 246.362 134.024C246.362 135.368 246.442 136.496 246.602 137.408C246.762 138.32 247.098 139.056 247.61 139.616C248.138 140.176 248.906 140.456 249.914 140.456C250.922 140.456 251.682 140.176 252.194 139.616C252.722 139.056 253.066 138.32 253.226 137.408C253.386 136.496 253.466 135.368 253.466 134.024ZM258.713 139.352V137.288L266.777 125.72H270.089V136.976H272.321V139.352H270.089V143H267.401V139.352H258.713ZM267.521 128.504L261.857 136.976H267.521V128.504ZM276.1 139.28C277.636 137.952 278.844 136.864 279.724 136.016C280.62 135.152 281.364 134.256 281.956 133.328C282.548 132.4 282.844 131.472 282.844 130.544C282.844 129.584 282.612 128.832 282.148 128.288C281.7 127.744 280.988 127.472 280.012 127.472C279.068 127.472 278.332 127.776 277.804 128.384C277.292 128.976 277.02 129.776 276.988 130.784H274.348C274.396 128.96 274.94 127.568 275.98 126.608C277.036 125.632 278.372 125.144 279.988 125.144C281.732 125.144 283.092 125.624 284.068 126.584C285.06 127.544 285.556 128.824 285.556 130.424C285.556 131.576 285.26 132.688 284.668 133.76C284.092 134.816 283.396 135.768 282.58 136.616C281.78 137.448 280.756 138.416 279.508 139.52L278.428 140.48H286.036V142.76H274.372V140.768L276.1 139.28ZM297.626 133.856C295.962 133.024 295.13 131.712 295.13 129.92C295.13 129.056 295.346 128.264 295.778 127.544C296.21 126.824 296.858 126.256 297.722 125.84C298.586 125.408 299.642 125.192 300.89 125.192C302.122 125.192 303.17 125.408 304.034 125.84C304.914 126.256 305.57 126.824 306.002 127.544C306.434 128.264 306.65 129.056 306.65 129.92C306.65 130.816 306.418 131.608 305.954 132.296C305.506 132.968 304.906 133.488 304.154 133.856C305.066 134.192 305.786 134.744 306.314 135.512C306.842 136.264 307.106 137.152 307.106 138.176C307.106 139.216 306.842 140.136 306.314 140.936C305.786 141.736 305.05 142.352 304.106 142.784C303.162 143.216 302.09 143.432 300.89 143.432C299.69 143.432 298.618 143.216 297.674 142.784C296.746 142.352 296.018 141.736 295.49 140.936C294.962 140.136 294.698 139.216 294.698 138.176C294.698 137.136 294.962 136.24 295.49 135.488C296.018 134.736 296.73 134.192 297.626 133.856ZM304.034 130.256C304.034 129.36 303.754 128.672 303.194 128.192C302.634 127.712 301.866 127.472 300.89 127.472C299.93 127.472 299.17 127.712 298.61 128.192C298.05 128.672 297.77 129.368 297.77 130.28C297.77 131.08 298.058 131.736 298.634 132.248C299.226 132.744 299.978 132.992 300.89 132.992C301.802 132.992 302.554 132.736 303.146 132.224C303.738 131.712 304.034 131.056 304.034 130.256ZM300.89 135.056C299.834 135.056 298.97 135.32 298.298 135.848C297.642 136.36 297.314 137.104 297.314 138.08C297.314 138.992 297.634 139.736 298.274 140.312C298.914 140.872 299.786 141.152 300.89 141.152C301.978 141.152 302.834 140.864 303.458 140.288C304.098 139.712 304.418 138.976 304.418 138.08C304.418 137.12 304.09 136.376 303.434 135.848C302.794 135.32 301.946 135.056 300.89 135.056ZM309.619 128V125.504H314.611V143H311.851V128H309.619ZM319.882 139.28C321.418 137.952 322.626 136.864 323.506 136.016C324.402 135.152 325.146 134.256 325.738 133.328C326.33 132.4 326.626 131.472 326.626 130.544C326.626 129.584 326.394 128.832 325.93 128.288C325.482 127.744 324.77 127.472 323.794 127.472C322.85 127.472 322.114 127.776 321.586 128.384C321.074 128.976 320.802 129.776 320.77 130.784H318.13C318.178 128.96 318.722 127.568 319.762 126.608C320.818 125.632 322.154 125.144 323.77 125.144C325.514 125.144 326.874 125.624 327.85 126.584C328.842 127.544 329.338 128.824 329.338 130.424C329.338 131.576 329.042 132.688 328.45 133.76C327.874 134.816 327.178 135.768 326.362 136.616C325.562 137.448 324.538 138.416 323.29 139.52L322.21 140.48H329.818V142.76H318.154V140.768L319.882 139.28ZM335.629 138.248C335.789 139.048 336.133 139.656 336.661 140.072C337.189 140.488 337.901 140.696 338.797 140.696C339.933 140.696 340.765 140.248 341.293 139.352C341.821 138.456 342.085 136.928 342.085 134.768C341.701 135.312 341.157 135.736 340.453 136.04C339.765 136.328 339.013 136.472 338.197 136.472C337.157 136.472 336.213 136.264 335.365 135.848C334.517 135.416 333.845 134.784 333.349 133.952C332.869 133.104 332.629 132.08 332.629 130.88C332.629 129.12 333.141 127.72 334.165 126.68C335.205 125.624 336.629 125.096 338.437 125.096C340.613 125.096 342.157 125.824 343.069 127.28C343.997 128.72 344.461 130.936 344.461 133.928C344.461 135.992 344.285 137.68 343.933 138.992C343.597 140.304 343.005 141.296 342.157 141.968C341.309 142.64 340.133 142.976 338.629 142.976C336.917 142.976 335.597 142.528 334.669 141.632C333.741 140.736 333.221 139.608 333.109 138.248H335.629ZM338.677 134.168C339.637 134.168 340.389 133.872 340.933 133.28C341.493 132.672 341.773 131.872 341.773 130.88C341.773 129.776 341.477 128.92 340.885 128.312C340.309 127.688 339.517 127.376 338.509 127.376C337.501 127.376 336.701 127.696 336.109 128.336C335.533 128.96 335.245 129.784 335.245 130.808C335.245 131.784 335.525 132.592 336.085 133.232C336.661 133.856 337.525 134.168 338.677 134.168Z" fill="white"/>
<path d="M305.608 172.76V171.432H308.616V183H307.144V172.76H305.608ZM310.941 181.832C312.296 180.744 313.357 179.853 314.125 179.16C314.893 178.456 315.538 177.725 316.061 176.968C316.594 176.2 316.861 175.448 316.861 174.712C316.861 174.019 316.69 173.475 316.349 173.08C316.018 172.675 315.48 172.472 314.733 172.472C314.008 172.472 313.442 172.701 313.037 173.16C312.642 173.608 312.429 174.211 312.397 174.968H310.989C311.032 173.773 311.394 172.851 312.077 172.2C312.76 171.549 313.64 171.224 314.717 171.224C315.816 171.224 316.685 171.528 317.325 172.136C317.976 172.744 318.301 173.581 318.301 174.648C318.301 175.533 318.034 176.397 317.501 177.24C316.978 178.072 316.381 178.808 315.709 179.448C315.037 180.077 314.178 180.813 313.133 181.656H318.637V182.872H310.941V181.832ZM326 167.928L321.616 185.72H320.176L324.544 167.928H326ZM327.754 181.832C329.108 180.744 330.17 179.853 330.938 179.16C331.706 178.456 332.351 177.725 332.874 176.968C333.407 176.2 333.674 175.448 333.674 174.712C333.674 174.019 333.503 173.475 333.162 173.08C332.831 172.675 332.292 172.472 331.546 172.472C330.82 172.472 330.255 172.701 329.85 173.16C329.455 173.608 329.242 174.211 329.21 174.968H327.802C327.844 173.773 328.207 172.851 328.89 172.2C329.572 171.549 330.452 171.224 331.53 171.224C332.628 171.224 333.498 171.528 334.138 172.136C334.788 172.744 335.114 173.581 335.114 174.648C335.114 175.533 334.847 176.397 334.314 177.24C333.791 178.072 333.194 178.808 332.522 179.448C331.85 180.077 330.991 180.813 329.946 181.656H335.45V182.872H327.754V181.832ZM337.133 177.096C337.133 175.261 337.431 173.832 338.029 172.808C338.626 171.773 339.671 171.256 341.165 171.256C342.647 171.256 343.687 171.773 344.285 172.808C344.882 173.832 345.181 175.261 345.181 177.096C345.181 178.963 344.882 180.413 344.285 181.448C343.687 182.483 342.647 183 341.165 183C339.671 183 338.626 182.483 338.029 181.448C337.431 180.413 337.133 178.963 337.133 177.096ZM343.741 177.096C343.741 176.168 343.677 175.384 343.549 174.744C343.431 174.093 343.181 173.571 342.797 173.176C342.423 172.781 341.879 172.584 341.165 172.584C340.439 172.584 339.885 172.781 339.501 173.176C339.127 173.571 338.877 174.093 338.749 174.744C338.631 175.384 338.573 176.168 338.573 177.096C338.573 178.056 338.631 178.861 338.749 179.512C338.877 180.163 339.127 180.685 339.501 181.08C339.885 181.475 340.439 181.672 341.165 181.672C341.879 181.672 342.423 181.475 342.797 181.08C343.181 180.685 343.431 180.163 343.549 179.512C343.677 178.861 343.741 178.056 343.741 177.096Z" fill="white"/>
<path d="M307.142 57.8213C310.755 57.8213 313.684 52.1159 313.684 45.078C313.684 38.0401 310.755 32.3347 307.142 32.3347C303.529 32.3347 300.6 38.0401 300.6 45.078C300.6 52.1159 303.529 57.8213 307.142 57.8213Z" fill="#E5F33C"/>
<path d="M324.118 61.8827C327.731 61.8827 330.66 54.8329 330.66 46.1364C330.66 37.44 327.731 30.3901 324.118 30.3901C320.505 30.3901 317.575 37.44 317.575 46.1364C317.575 54.8329 320.505 61.8827 324.118 61.8827Z" fill="white"/>
<path d="M341.092 65.3679C344.705 65.3679 347.634 56.6669 347.634 45.9339C347.634 35.2009 344.705 26.5 341.092 26.5C337.479 26.5 334.55 35.2009 334.55 45.9339C334.55 56.6669 337.479 65.3679 341.092 65.3679Z" fill="#E5F33C"/>
<rect y="234" width="32" height="8" rx="4" fill="#1F74EC"/>
<rect x="40" y="234" width="8" height="8" rx="4" fill="#E8E8E8"/>
<rect x="56" y="234" width="8" height="8" rx="4" fill="#E8E8E8"/>
<defs>
<filter id="filter0_f_178_3349" x="-69" y="-296" width="729" height="657" filterUnits="userSpaceOnUse" color-interpolation-filters="sRGB">
<feFlood flood-opacity="0" result="BackgroundImageFix"/>
<feBlend mode="normal" in="SourceGraphic" in2="BackgroundImageFix" result="shape"/>
<feGaussianBlur stdDeviation="50" result="effect1_foregroundBlur_178_3349"/>
</filter>
</defs>
</svg>
