<svg width="24" height="24" viewBox="0 0 24 24" fill="none" xmlns="http://www.w3.org/2000/svg">
<path d="M2.5 12C2.5 7.522 2.5 5.282 3.891 3.891C5.282 2.5 7.521 2.5 12 2.5C16.478 2.5 18.718 2.5 20.109 3.891C21.5 5.282 21.5 7.521 21.5 12C21.5 16.478 21.5 18.718 20.109 20.109C18.718 21.5 16.479 21.5 12 21.5C7.522 21.5 5.282 21.5 3.891 20.109C2.5 18.718 2.5 16.479 2.5 12Z" stroke="#7C7C7C" stroke-width="1.5" stroke-linejoin="round"/>
<path d="M8.5 10C8.10218 10 7.72064 9.84196 7.43934 9.56066C7.15804 9.27936 7 8.89782 7 8.5C7 8.10218 7.15804 7.72064 7.43934 7.43934C7.72064 7.15804 8.10218 7 8.5 7C8.89782 7 9.27936 7.15804 9.56066 7.43934C9.84196 7.72064 10 8.10218 10 8.5C10 8.89782 9.84196 9.27936 9.56066 9.56066C9.27936 9.84196 8.89782 10 8.5 10ZM15.5 17C15.8978 17 16.2794 16.842 16.5607 16.5607C16.842 16.2794 17 15.8978 17 15.5C17 15.1022 16.842 14.7206 16.5607 14.4393C16.2794 14.158 15.8978 14 15.5 14C15.1022 14 14.7206 14.158 14.4393 14.4393C14.158 14.7206 14 15.1022 14 15.5C14 15.8978 14.158 16.2794 14.4393 16.5607C14.7206 16.842 15.1022 17 15.5 17Z" stroke="#7C7C7C" stroke-width="1.5"/>
<path d="M10 8.5H17M14 15.5H7" stroke="#7C7C7C" stroke-width="1.5" stroke-linecap="round"/>
</svg>
