<svg width="28" height="28" viewBox="0 0 28 28" fill="none" xmlns="http://www.w3.org/2000/svg">
<path d="M11.6664 3.79102C9.22102 3.79102 7.19918 5.72768 7.19918 8.16602C7.19918 10.6043 9.22102 12.541 11.6664 12.541C13.5914 12.541 15.2539 11.3405 15.8745 9.64068C16.1695 10.2699 16.6683 10.781 17.2902 11.0912C17.912 11.4013 18.6204 11.4924 19.3005 11.3495C19.9806 11.2066 20.5924 10.8382 21.0369 10.304C21.4813 9.76977 21.7323 9.1011 21.7491 8.40638C21.7659 7.71167 21.5475 7.03166 21.1294 6.4766C20.7113 5.92155 20.1179 5.524 19.4456 5.34842C18.7732 5.17284 18.0612 5.22952 17.4251 5.50928C16.789 5.78903 16.266 6.27546 15.941 6.88968C15.381 5.08602 13.666 3.79102 11.6664 3.79102ZM8.94918 8.16602C8.94918 6.73802 10.1439 5.54102 11.6664 5.54102C13.1889 5.54102 14.3835 6.73802 14.3835 8.16602C14.3835 9.59402 13.1889 10.791 11.6664 10.791C10.1439 10.791 8.94918 9.59402 8.94918 8.16602ZM16.7495 8.33285C16.7495 7.82447 16.9515 7.33692 17.3109 6.97744C17.6704 6.61797 18.158 6.41602 18.6663 6.41602C19.1747 6.41602 19.6623 6.61797 20.0218 6.97744C20.3812 7.33692 20.5832 7.82447 20.5832 8.33285C20.5832 8.84122 20.3812 9.32878 20.0218 9.68825C19.6623 10.0477 19.1747 10.2497 18.6663 10.2497C18.158 10.2497 17.6704 10.0477 17.3109 9.68825C16.9515 9.32878 16.7495 8.84122 16.7495 8.33285ZM9.66552 13.6575C9.19535 13.353 8.51752 13.1185 7.80352 13.3145C7.61296 13.3674 7.42318 13.4238 7.23418 13.4837L6.08618 13.8523C4.64768 14.312 3.53352 15.4542 3.15785 16.9008L3.14502 16.9475L2.65502 20.3915C2.46018 21.7682 3.22085 23.1927 4.73168 23.5427C6.12818 23.867 8.37868 24.2077 11.6664 24.2077C14.954 24.2077 17.2034 23.867 18.6022 23.5427C20.1107 23.1927 20.8725 21.7693 20.6777 20.3915L20.1877 16.9487L20.176 16.9008C19.7992 15.4542 18.685 14.312 17.2465 13.8523L16.0985 13.4837C15.9095 13.4238 15.7197 13.3674 15.5292 13.3145C14.8152 13.1185 14.1374 13.353 13.6672 13.6575C13.2355 13.9375 12.5309 14.2747 11.6664 14.2747C10.803 14.2747 10.0972 13.9375 9.66552 13.6575ZM8.26785 15.0003C8.34252 14.9805 8.50352 14.9887 8.71585 15.1252C9.31318 15.5125 10.3492 16.0235 11.6664 16.0235C12.9835 16.0235 14.0195 15.5125 14.618 15.1252C14.828 14.9887 14.9902 14.9805 15.0649 15.0003C15.2321 15.047 15.3985 15.0968 15.5642 15.1497L16.7134 15.5172C17.5884 15.7972 18.2394 16.4738 18.4704 17.2952L18.944 20.6365C19.0315 21.2513 18.7037 21.7215 18.2055 21.8382C16.949 22.1298 14.8327 22.4565 11.6664 22.4565C8.50002 22.4565 6.38368 22.1298 5.12718 21.8382C4.62902 21.7215 4.30118 21.2513 4.38752 20.6365L4.86235 17.2952C4.98526 16.8766 5.21012 16.495 5.51676 16.1847C5.8234 15.8744 6.20225 15.6451 6.61935 15.5172L7.76852 15.1497C7.93418 15.0968 8.10063 15.047 8.26785 15.0003Z" fill="#6B7280"/>
<path d="M21.2142 12.0149C21.0303 11.9691 20.8383 11.9665 20.6533 12.0074C20.4682 12.0483 20.2952 12.1315 20.1478 12.2506C19.8328 12.4956 19.2752 12.8339 18.6673 12.8339C18.5126 12.8339 18.3642 12.8954 18.2548 13.0048C18.1454 13.1142 18.084 13.2626 18.084 13.4173C18.084 13.572 18.1454 13.7204 18.2548 13.8298C18.3642 13.9392 18.5126 14.0006 18.6673 14.0006C19.6683 14.0006 20.4827 13.4674 20.8642 13.1723C20.8783 13.1589 20.8955 13.1493 20.9143 13.1443H20.919C21.0753 13.1855 21.2305 13.2314 21.3845 13.2819L22.1837 13.5444C22.7973 13.7463 23.2628 14.2374 23.4273 14.8441L23.7575 17.2346C23.8228 17.7048 23.5755 18.0571 23.2208 18.1411C22.9603 18.2049 22.6441 18.2671 22.2723 18.3278C22.1966 18.34 22.1241 18.3671 22.0589 18.4074C21.9936 18.4477 21.937 18.5004 21.8921 18.5626C21.8473 18.6248 21.8151 18.6952 21.7975 18.7698C21.7798 18.8444 21.7771 18.9218 21.7893 18.9974C21.8016 19.0731 21.8286 19.1457 21.8689 19.2109C21.9092 19.2761 21.9619 19.3328 22.0241 19.3776C22.0863 19.4225 22.1567 19.4547 22.2313 19.4723C22.3059 19.4899 22.3833 19.4927 22.459 19.4804C22.8572 19.4143 23.201 19.3463 23.4903 19.2763C24.5345 19.0278 25.0455 18.0279 24.9137 17.0748L24.5742 14.6178L24.566 14.5863C24.4382 14.0867 24.1862 13.6276 23.8333 13.2517C23.4804 12.8757 23.0381 12.5952 22.5477 12.4361L21.7485 12.1736C21.572 12.1154 21.3938 12.0625 21.2142 12.0149Z" fill="#6B7280"/>
</svg>
