<svg width="181" height="181" viewBox="0 0 181 181" fill="none" xmlns="http://www.w3.org/2000/svg">
<circle cx="90.1898" cy="90.1895" r="77.8447" stroke="#E2DECD" stroke-width="24.4655"/>
<path d="M168.035 90.1895C168.035 73.1255 162.428 56.5341 152.077 42.9682C141.725 29.4023 127.203 19.6134 110.745 15.1076C94.2866 10.6018 76.8036 11.6287 60.9859 18.0304C45.1682 24.4321 31.8922 35.8539 23.2004 50.5384C14.5087 65.2229 10.8827 82.3565 12.8805 99.3032C14.8783 116.25 22.3891 132.071 34.2574 144.331C46.1256 156.592 61.6937 164.614 78.5665 167.162C95.4392 169.709 112.682 166.643 127.641 158.433" stroke="#111111" stroke-width="24.4655"/>
<path d="M168.035 90.1895C168.035 77.06 164.714 64.1439 158.381 52.6426C152.048 41.1413 142.909 31.4287 131.815 24.4082C120.72 17.3876 108.03 13.2874 94.9244 12.4889C81.8192 11.6903 68.725 14.2194 56.8599 19.841C44.9947 25.4625 34.7442 33.9937 27.0619 44.641C19.3796 55.2883 14.5151 67.7057 12.921 80.738C11.3269 93.7703 13.055 106.994 17.9444 119.179C22.8339 131.364 30.7259 142.115 40.8862 150.43" stroke="#00565B" stroke-width="24.4655"/>
<path d="M168.035 90.1895C168.035 74.3541 163.205 58.8953 154.191 45.876C145.176 32.8568 132.406 22.8963 117.583 17.3239C102.761 11.7514 86.5914 10.832 71.2327 14.6883C55.874 18.5446 42.0567 26.9932 31.6246 38.9067" stroke="#E5F33C" stroke-width="24.4655"/>
</svg>
