<svg width="28" height="28" viewBox="0 0 28 28" fill="none" xmlns="http://www.w3.org/2000/svg">
<path d="M6 12.5C6 11.837 6.26339 11.2011 6.73223 10.7322C7.20107 10.2634 7.83696 10 8.5 10C9.16304 10 9.79893 10.2634 10.2678 10.7322C10.7366 11.2011 11 11.837 11 12.5C11 13.163 10.7366 13.7989 10.2678 14.2678C9.79893 14.7366 9.16304 15 8.5 15C7.83696 15 7.20107 14.7366 6.73223 14.2678C6.26339 13.7989 6 13.163 6 12.5ZM8.5 11.5C8.23478 11.5 7.98043 11.6054 7.79289 11.7929C7.60536 11.9804 7.5 12.2348 7.5 12.5C7.5 12.7652 7.60536 13.0196 7.79289 13.2071C7.98043 13.3946 8.23478 13.5 8.5 13.5C8.76522 13.5 9.01957 13.3946 9.20711 13.2071C9.39464 13.0196 9.5 12.7652 9.5 12.5C9.5 12.2348 9.39464 11.9804 9.20711 11.7929C9.01957 11.6054 8.76522 11.5 8.5 11.5ZM8.5 17C7.83696 17 7.20107 17.2634 6.73223 17.7322C6.26339 18.2011 6 18.837 6 19.5C6 20.163 6.26339 20.7989 6.73223 21.2678C7.20107 21.7366 7.83696 22 8.5 22C9.16304 22 9.79893 21.7366 10.2678 21.2678C10.7366 20.7989 11 20.163 11 19.5C11 18.837 10.7366 18.2011 10.2678 17.7322C9.79893 17.2634 9.16304 17 8.5 17ZM7.5 19.5C7.5 19.2348 7.60536 18.9804 7.79289 18.7929C7.98043 18.6054 8.23478 18.5 8.5 18.5C8.76522 18.5 9.01957 18.6054 9.20711 18.7929C9.39464 18.9804 9.5 19.2348 9.5 19.5C9.5 19.7652 9.39464 20.0196 9.20711 20.2071C9.01957 20.3946 8.76522 20.5 8.5 20.5C8.23478 20.5 7.98043 20.3946 7.79289 20.2071C7.60536 20.0196 7.5 19.7652 7.5 19.5ZM13 12.25C13 12.0511 13.079 11.8603 13.2197 11.7197C13.3603 11.579 13.5511 11.5 13.75 11.5H21.25C21.4489 11.5 21.6397 11.579 21.7803 11.7197C21.921 11.8603 22 12.0511 22 12.25C22 12.4489 21.921 12.6397 21.7803 12.7803C21.6397 12.921 21.4489 13 21.25 13H13.75C13.5511 13 13.3603 12.921 13.2197 12.7803C13.079 12.6397 13 12.4489 13 12.25ZM13.75 18.5C13.5511 18.5 13.3603 18.579 13.2197 18.7197C13.079 18.8603 13 19.0511 13 19.25C13 19.4489 13.079 19.6397 13.2197 19.7803C13.3603 19.921 13.5511 20 13.75 20H21.25C21.4489 20 21.6397 19.921 21.7803 19.7803C21.921 19.6397 22 19.4489 22 19.25C22 19.0511 21.921 18.8603 21.7803 18.7197C21.6397 18.579 21.4489 18.5 21.25 18.5H13.75ZM6 7.25C6 7.05109 6.07902 6.86032 6.21967 6.71967C6.36032 6.57902 6.55109 6.5 6.75 6.5H21.25C21.4489 6.5 21.6397 6.57902 21.7803 6.71967C21.921 6.86032 22 7.05109 22 7.25C22 7.44891 21.921 7.63968 21.7803 7.78033C21.6397 7.92098 21.4489 8 21.25 8H6.75C6.55109 8 6.36032 7.92098 6.21967 7.78033C6.07902 7.63968 6 7.44891 6 7.25ZM6.75 3C5.75544 3 4.80161 3.39509 4.09835 4.09835C3.39509 4.80161 3 5.75544 3 6.75V21.25C3 22.2446 3.39509 23.1984 4.09835 23.9017C4.80161 24.6049 5.75544 25 6.75 25H21.25C22.2446 25 23.1984 24.6049 23.9017 23.9017C24.6049 23.1984 25 22.2446 25 21.25V6.75C25 5.75544 24.6049 4.80161 23.9017 4.09835C23.1984 3.39509 22.2446 3 21.25 3H6.75ZM4.5 6.75C4.5 6.15326 4.73705 5.58097 5.15901 5.15901C5.58097 4.73705 6.15326 4.5 6.75 4.5H21.25C21.8467 4.5 22.419 4.73705 22.841 5.15901C23.2629 5.58097 23.5 6.15326 23.5 6.75V21.25C23.5 21.8467 23.2629 22.419 22.841 22.841C22.419 23.2629 21.8467 23.5 21.25 23.5H6.75C6.15326 23.5 5.58097 23.2629 5.15901 22.841C4.73705 22.419 4.5 21.8467 4.5 21.25V6.75Z" fill="#6B7280"/>
</svg>
