<svg width="183" height="183" viewBox="0 0 183 183" fill="none" xmlns="http://www.w3.org/2000/svg">
<path fill-rule="evenodd" clip-rule="evenodd" d="M97.7783 3.74363C97.9174 1.80497 96.4577 0.113802 94.5151 0.0497522C76.253 -0.552741 58.1976 4.32764 42.6954 14.1027C26.1998 24.5043 13.459 39.9042 6.33114 58.056C-0.796794 76.2082 -1.93878 96.1622 3.07163 115.009C8.08214 133.856 18.9829 150.608 34.1841 162.824C49.3854 175.04 68.0919 182.079 87.5752 182.916C107.059 183.752 126.299 178.342 142.492 167.474C158.684 156.607 170.98 140.85 177.587 122.502C183.797 105.259 184.677 86.5767 180.158 68.8723C179.677 66.9886 177.712 65.9276 175.848 66.4801L154.525 72.8051C152.662 73.3576 151.609 75.3152 152.056 77.2067C154.821 88.9196 154.134 101.211 150.04 112.581C145.547 125.058 137.185 135.773 126.174 143.162C115.163 150.553 102.08 154.231 88.8307 153.663C75.5826 153.094 62.8623 148.308 52.5254 140C42.1886 131.694 34.7759 120.302 31.3687 107.486C27.9617 94.6709 28.7382 81.1017 33.5851 68.7579C38.4318 56.4151 47.0961 45.9428 58.3128 38.8698C68.5353 32.4238 80.3916 29.1079 92.4247 29.2869C94.3682 29.3158 96.053 27.8671 96.1912 25.9284L97.7783 3.74363Z" fill="#1F74EC"/>
</svg>
