<svg width="28" height="28" viewBox="0 0 28 28" fill="none" xmlns="http://www.w3.org/2000/svg">
<path d="M9.33333 11.6667C9.17862 11.6667 9.03025 11.7281 8.92085 11.8375C8.81146 11.9469 8.75 12.0953 8.75 12.25C8.75 12.4047 8.81146 12.5531 8.92085 12.6625C9.03025 12.7719 9.17862 12.8333 9.33333 12.8333H13.4167C13.5714 12.8333 13.7197 12.7719 13.8291 12.6625C13.9385 12.5531 14 12.4047 14 12.25C14 12.0953 13.9385 11.9469 13.8291 11.8375C13.7197 11.7281 13.5714 11.6667 13.4167 11.6667H9.33333ZM8.75 9.33333C8.75 9.17862 8.81146 9.03025 8.92085 8.92085C9.03025 8.81146 9.17862 8.75 9.33333 8.75H18.375C18.5297 8.75 18.6781 8.81146 18.7875 8.92085C18.8969 9.03025 18.9583 9.17862 18.9583 9.33333C18.9583 9.48804 18.8969 9.63642 18.7875 9.74581C18.6781 9.85521 18.5297 9.91667 18.375 9.91667H9.33333C9.17862 9.91667 9.03025 9.85521 8.92085 9.74581C8.81146 9.63642 8.75 9.48804 8.75 9.33333Z" fill="#6B7280"/>
<path fill-rule="evenodd" clip-rule="evenodd" d="M8.75 16.334C8.75 16.1793 8.81146 16.0309 8.92085 15.9215C9.03025 15.8121 9.17862 15.7507 9.33333 15.7507H11.6667C11.8214 15.7507 11.9697 15.8121 12.0791 15.9215C12.1885 16.0309 12.25 16.1793 12.25 16.334V18.6673C12.25 18.822 12.1885 18.9704 12.0791 19.0798C11.9697 19.1892 11.8214 19.2507 11.6667 19.2507H9.33333C9.17862 19.2507 9.03025 19.1892 8.92085 19.0798C8.81146 18.9704 8.75 18.822 8.75 18.6673V16.334ZM9.91667 18.084V16.9173H11.0833V18.084H9.91667ZM16.3333 18.084C16.7975 18.084 17.2426 17.8996 17.5708 17.5714C17.899 17.2432 18.0833 16.7981 18.0833 16.334C18.0833 15.8699 17.899 15.4247 17.5708 15.0965C17.2426 14.7684 16.7975 14.584 16.3333 14.584C15.8692 14.584 15.4241 14.7684 15.0959 15.0965C14.7677 15.4247 14.5833 15.8699 14.5833 16.334C14.5833 16.7981 14.7677 17.2432 15.0959 17.5714C15.4241 17.8996 15.8692 18.084 16.3333 18.084ZM16.3333 16.9173C16.4121 16.9209 16.4907 16.9085 16.5645 16.8809C16.6383 16.8533 16.7057 16.811 16.7627 16.7566C16.8197 16.7022 16.8651 16.6368 16.8962 16.5644C16.9272 16.4919 16.9432 16.414 16.9433 16.3352C16.9434 16.2564 16.9275 16.1784 16.8966 16.1059C16.8657 16.0334 16.8205 15.9679 16.7636 15.9134C16.7067 15.8589 16.6393 15.8165 16.5656 15.7887C16.4918 15.7609 16.4132 15.7484 16.3345 15.7518C16.1844 15.7584 16.0427 15.8226 15.9388 15.931C15.8349 16.0395 15.7768 16.1838 15.7767 16.334C15.7765 16.4842 15.8343 16.6287 15.938 16.7373C16.0417 16.846 16.1833 16.9105 16.3333 16.9173ZM12.8333 20.5235C12.8333 19.2892 15.1649 18.6673 16.3333 18.6673C17.5017 18.6673 19.8333 19.2892 19.8333 20.5235V22.7507H12.8333V20.5235ZM14.0321 20.5468L14 20.5801V21.584H18.6667V20.5807L18.6346 20.5462C18.5389 20.4529 18.3546 20.3292 18.0652 20.2062C17.4819 19.9582 16.7621 19.834 16.3333 19.834C15.9046 19.834 15.1848 19.9582 14.6014 20.2062C14.3121 20.3287 14.1277 20.4535 14.0321 20.5468Z" fill="#6B7280"/>
<path fill-rule="evenodd" clip-rule="evenodd" d="M9.91732 4.08398C9.91732 3.61986 10.1017 3.17474 10.4299 2.84655C10.7581 2.51836 11.2032 2.33398 11.6673 2.33398H16.334C16.7981 2.33398 17.2432 2.51836 17.5714 2.84655C17.8996 3.17474 18.084 3.61986 18.084 4.08398H20.4173C20.8814 4.08398 21.3266 4.26836 21.6548 4.59655C21.9829 4.92474 22.1673 5.36986 22.1673 5.83398V23.9173C22.1673 24.3814 21.9829 24.8266 21.6548 25.1548C21.3266 25.4829 20.8814 25.6673 20.4173 25.6673H7.58398C7.11986 25.6673 6.67474 25.4829 6.34655 25.1548C6.01836 24.8266 5.83398 24.3814 5.83398 23.9173V5.83398C5.83398 5.36986 6.01836 4.92474 6.34655 4.59655C6.67474 4.26836 7.11986 4.08398 7.58398 4.08398H9.91732ZM16.334 7.00065C16.7981 7.00065 17.2432 6.81628 17.5714 6.48809C17.8996 6.1599 18.084 5.71478 18.084 5.25065H20.4173C20.572 5.25065 20.7204 5.31211 20.8298 5.42151C20.9392 5.5309 21.0007 5.67928 21.0007 5.83398V23.9173C21.0007 24.072 20.9392 24.2204 20.8298 24.3298C20.7204 24.4392 20.572 24.5007 20.4173 24.5007H7.58398C7.42927 24.5007 7.2809 24.4392 7.17151 24.3298C7.06211 24.2204 7.00065 24.072 7.00065 23.9173V5.83398C7.00065 5.67928 7.06211 5.5309 7.17151 5.42151C7.2809 5.31211 7.42927 5.25065 7.58398 5.25065H9.91732C9.91732 5.71478 10.1017 6.1599 10.4299 6.48809C10.7581 6.81628 11.2032 7.00065 11.6673 7.00065H16.334ZM11.6673 3.50065C11.5126 3.50065 11.3642 3.56211 11.2548 3.67151C11.1454 3.7809 11.084 3.92927 11.084 4.08398V5.25065C11.084 5.40536 11.1454 5.55373 11.2548 5.66313C11.3642 5.77253 11.5126 5.83398 11.6673 5.83398H16.334C16.4887 5.83398 16.6371 5.77253 16.7465 5.66313C16.8559 5.55373 16.9173 5.40536 16.9173 5.25065V4.08398C16.9173 3.92927 16.8559 3.7809 16.7465 3.67151C16.6371 3.56211 16.4887 3.50065 16.334 3.50065H11.6673Z" fill="#6B7280"/>
</svg>
